<?xml version="1.0" encoding="UTF-8" standalone="no"?>
<svg
   viewBox="0 0 195.013 420.60599"
   version="1.1"
   stroke-linecap="round"
   stroke-linejoin="round"
   fill-rule="evenodd"
   xml:space="preserve"
   id="svg7066"
   width="195.013"
   height="420.60599"
   xmlns="http://www.w3.org/2000/svg"
   xmlns:svg="http://www.w3.org/2000/svg">
<defs
   id="defs7058">
<clipPath
   id="clipId0">
<path
   d="M 0,768 H 1024 V 0 H 0 Z"
   id="path7055" />
</clipPath>
</defs>

<g
   stroke-width="0.75"
   clip-path="url(#clipId0)"
   fill="none"
   stroke="#ff0000"
   id="g7064"
   transform="translate(-414.493,-173.697)">
<polyline
   points="414.868,586.812 416.916,586.801 418.964,586.768 421.012,586.712 423.059,586.634 425.105,586.534 427.149,586.411 429.192,586.266 431.234,586.098 433.273,585.909 435.311,585.696 437.346,585.462 439.378,585.205 441.407,584.926 443.433,584.625 445.456,584.302 447.475,583.957 449.49,583.589 451.501,583.199 453.507,582.788 455.509,582.354 457.506,581.899 459.498,581.422 461.485,580.923 463.466,580.402 465.441,579.86 467.41,579.296 469.373,578.71 471.329,578.104 473.279,577.475 475.222,576.826 477.157,576.155 479.085,575.463 481.005,574.75 482.917,574.016 484.821,573.261 486.717,572.485 488.604,571.689 490.483,570.872 492.352,570.034 494.212,569.176 496.062,568.298 497.903,567.399 499.734,566.481 501.555,565.542 503.365,564.584 505.164,563.606 506.953,562.608 508.731,561.59 510.498,560.554 512.253,559.498 513.996,558.422 515.728,557.328 517.447,556.215 519.154,555.083 520.849,553.933 522.531,552.764 524.2,551.576 525.856,550.371 527.499,549.147 529.128,547.906 530.744,546.647 532.345,545.37 533.933,544.076 535.506,542.764 537.065,541.435 538.609,540.089 540.139,538.727 541.653,537.348 543.152,535.952 544.636,534.54 546.104,533.112 547.557,531.667 548.994,530.207 550.414,528.732 551.818,527.241 553.206,525.734 554.578,524.213 555.932,522.676 557.27,521.125 558.591,519.559 559.894,517.979 561.18,516.385 562.449,514.777 563.7,513.155 564.933,511.519 566.148,509.87 567.345,508.208 568.523,506.533 569.684,504.845 570.825,503.144 571.948,501.431 573.052,499.706 574.138,497.969 575.204,496.22 576.251,494.459 577.278,492.687 578.286,490.904 579.275,489.11 580.244,487.305 581.193,485.49 582.122,483.665 583.031,481.829 583.92,479.984 584.789,478.129 585.637,476.264 586.465,474.391 587.272,472.508 588.059,470.617 588.825,468.717 589.57,466.809 590.294,464.893 590.997,462.969 591.679,461.038 592.34,459.099 592.979,457.153 593.597,455.2 594.194,453.241 594.77,451.275 595.323,449.303 595.855,447.325 596.366,445.341 596.854,443.352 597.321,441.358 597.766,439.358 598.189,437.354 598.591,435.346 598.97,433.333 599.327,431.316 599.662,429.295 599.975,427.271 600.265,425.243 600.534,423.212 600.78,421.179 601.004,419.143 601.205,417.105 601.385,415.064 601.542,413.022 601.676,410.978 601.788,408.933 601.878,406.886 601.945,404.839 601.99,402.791 602.013,400.743 602.013,398.695 601.991,396.647 601.946,394.599 601.879,392.552 601.789,390.505 601.677,388.46 601.543,386.416 601.386,384.374 601.207,382.333 601.006,380.295 600.782,378.259 600.536,376.225 600.268,374.195 599.978,372.167 599.665,370.143 599.33,368.122 598.973,366.105 598.594,364.092 598.193,362.083 597.771,360.079 597.326,358.08 596.859,356.085 596.371,354.096 595.86,352.112 595.329,350.134 594.775,348.162 594.2,346.196 593.603,344.236 592.985,342.284 592.346,340.338 591.685,338.399 591.004,336.467 590.301,334.543 589.577,332.627 588.832,330.719 588.066,328.819 587.28,326.928 586.473,325.045 585.645,323.172 584.797,321.307 583.929,319.452 583.04,317.607 582.131,315.771 581.202,313.945 580.253,312.13 579.284,310.325 578.296,308.531 577.288,306.748 576.261,304.976 575.214,303.215 574.148,301.466 573.063,299.729 571.959,298.004 570.836,296.29 569.695,294.59 568.535,292.902 567.356,291.226 566.159,289.564 564.945,287.915 563.712,286.279 562.461,284.657 561.193,283.048 559.907,281.454 558.603,279.874 557.283,278.308 555.945,276.757 554.591,275.22 553.22,273.698 551.832,272.192 550.428,270.701 549.007,269.225 547.571,267.765 546.118,266.32 544.65,264.892 543.167,263.48 541.668,262.084 540.153,260.704 538.624,259.342 537.08,257.996 535.521,256.667 533.948,255.355 532.361,254.061 530.759,252.784 529.144,251.524 527.515,250.283 525.872,249.059 524.216,247.853 522.547,246.666 520.865,245.497 519.171,244.346 517.464,243.214 515.744,242.101 514.013,241.006 512.27,239.931 510.515,238.875 508.748,237.838 506.971,236.82 505.182,235.822 503.382,234.844 501.572,233.885 499.752,232.946 497.921,232.027 496.08,231.129 494.23,230.25 492.37,229.392 490.501,228.554 488.623,227.737 486.735,226.941 484.84,226.165 482.936,225.41 481.024,224.675 479.103,223.962 477.176,223.27 475.24,222.599 473.298,221.949 471.348,221.32 469.392,220.713 467.429,220.128 465.46,219.564 465.46,219.564 464.495,219.281 463.537,218.977 462.586,218.652 461.643,218.306 460.707,217.938 459.78,217.55 458.861,217.141 457.953,216.712 457.053,216.262 456.165,215.793 455.287,215.303 454.42,214.795 453.564,214.266 452.721,213.719 451.89,213.154 451.072,212.569 450.268,211.967 449.477,211.347 448.7,210.709 447.937,210.054 447.19,209.382 446.457,208.694 445.74,207.989 445.039,207.268 444.355,206.532 443.687,205.781 443.036,205.016 442.402,204.235 441.786,203.441 441.187,202.633 440.607,201.812 440.046,200.979 439.503,200.132 438.98,199.274 438.475,198.405 437.99,197.524 437.526,196.633 437.081,195.732 436.656,194.821 436.252,193.9 435.868,192.971 435.506,192.034 435.164,191.088 434.844,190.135 434.545,189.176 434.268,188.21 434.012,187.237 433.778,186.26 433.566,185.277 433.376,184.29 433.208,183.299 433.063,182.305 432.939,181.307 432.838,180.307 432.76,179.305 432.704,178.301 432.67,177.296 432.659,176.291 432.659,174.072 439.775,174.072 439.775,176.291 439.775,176.291 439.786,177.2 439.818,178.108 439.873,179.015 439.949,179.921 440.047,180.824 440.167,181.725 440.308,182.622 440.471,183.516 440.655,184.406 440.861,185.291 441.088,186.171 441.336,187.046 441.604,187.914 441.894,188.775 442.204,189.629 442.535,190.476 442.886,191.314 443.256,192.143 443.647,192.964 444.057,193.775 444.487,194.575 444.936,195.365 445.403,196.145 445.89,196.912 446.394,197.668 446.917,198.412 447.457,199.142 448.014,199.86 448.589,200.564 449.18,201.254 449.788,201.929 450.412,202.59 451.052,203.235 451.707,203.865 452.376,204.479 453.061,205.077 453.759,205.658 454.472,206.223 455.197,206.77 455.936,207.299 456.687,207.81 457.45,208.304 458.225,208.779 459.011,209.235 459.807,209.672 460.614,210.09 461.431,210.488 462.257,210.866 463.092,211.225 463.935,211.563 464.787,211.882 465.645,212.179 466.511,212.456 467.383,212.712 467.383,212.712 469.388,213.286 471.388,213.882 473.381,214.5 475.367,215.138 477.346,215.799 479.318,216.48 481.283,217.182 483.24,217.906 485.189,218.65 487.13,219.416 489.062,220.202 490.987,221.009 492.902,221.836 494.808,222.684 496.705,223.553 498.593,224.442 500.471,225.351 502.339,226.28 504.197,227.229 506.044,228.198 507.882,229.187 509.708,230.195 511.524,231.224 513.328,232.271 515.121,233.338 516.902,234.424 518.672,235.529 520.43,236.653 522.175,237.796 523.908,238.958 525.629,240.138 527.337,241.336 529.032,242.553 530.713,243.788 532.382,245.041 534.036,246.312 535.677,247.601 537.304,248.907 538.917,250.23 540.516,251.571 542.1,252.929 543.669,254.303 545.224,255.695 546.763,257.103 548.288,258.528 549.797,259.969 551.29,261.426 552.768,262.899 554.229,264.387 555.675,265.892 557.104,267.412 558.517,268.947 559.914,270.497 561.293,272.062 562.656,273.642 564.002,275.236 565.331,276.845 566.642,278.468 567.935,280.105 569.211,281.756 570.47,283.42 571.71,285.098 572.932,286.789 574.136,288.493 575.321,290.21 576.488,291.939 577.637,293.681 578.766,295.435 579.877,297.201 580.969,298.979 582.041,300.769 583.094,302.57 584.128,304.382 585.143,306.206 586.137,308.04 587.112,309.884 588.067,311.739 589.002,313.604 589.917,315.48 590.812,317.364 591.686,319.259 592.54,321.162 593.374,323.075 594.187,324.996 594.979,326.927 595.75,328.865 596.501,330.812 597.231,332.766 597.939,334.729 598.627,336.699 599.293,338.676 599.938,340.66 600.562,342.651 601.164,344.649 601.745,346.653 602.304,348.663 602.841,350.679 603.357,352.7 603.851,354.727 604.324,356.76 604.774,358.797 605.203,360.839 605.609,362.885 605.994,364.936 606.356,366.99 606.697,369.049 607.015,371.111 607.311,373.176 607.585,375.244 607.837,377.316 608.066,379.389 608.273,381.465 608.458,383.544 608.621,385.624 608.761,387.705 608.878,389.789 608.974,391.873 609.047,393.958 609.097,396.044 609.126,398.13 609.131,400.216 609.115,402.303 609.076,404.389 609.014,406.474 608.93,408.559 608.824,410.643 608.695,412.725 608.544,414.806 608.371,416.885 608.175,418.962 607.957,421.037 607.717,423.11 607.455,425.18 607.17,427.246 606.863,429.31 606.534,431.37 606.183,433.427 605.809,435.48 605.414,437.528 604.997,439.573 604.558,441.612 604.097,443.647 603.614,445.677 603.109,447.701 602.583,449.72 602.035,451.733 601.465,453.741 600.874,455.741 600.261,457.736 599.627,459.724 598.972,461.704 598.295,463.678 597.597,465.644 596.878,467.603 596.139,469.554 595.378,471.497 594.596,473.431 593.794,475.357 592.971,477.274 592.127,479.182 591.263,481.082 590.379,482.971 589.475,484.851 588.55,486.722 587.605,488.582 586.641,490.432 585.656,492.272 584.652,494.1 583.628,495.918 582.585,497.725 581.522,499.521 580.44,501.305 579.339,503.077 578.22,504.837 577.081,506.586 575.923,508.322 574.747,510.045 573.553,511.755 572.34,513.453 571.109,515.138 569.86,516.809 568.593,518.467 567.309,520.111 566.006,521.741 564.687,523.357 563.35,524.959 561.996,526.546 560.625,528.119 559.237,529.677 557.832,531.22 556.411,532.747 554.974,534.26 553.521,535.756 552.051,537.238 550.566,538.703 549.065,540.152 547.548,541.585 546.017,543.002 544.47,544.402 542.908,545.785 541.331,547.152 539.74,548.501 538.135,549.834 536.515,551.149 534.881,552.446 533.233,553.726 531.572,554.988 529.897,556.233 528.209,557.459 526.508,558.667 524.794,559.856 523.067,561.027 521.328,562.18 519.577,563.314 517.813,564.429 516.038,565.524 514.251,566.601 512.452,567.659 510.642,568.697 508.821,569.715 506.99,570.714 505.147,571.694 503.295,572.653 501.432,573.593 499.559,574.512 497.676,575.411 495.784,576.29 493.882,577.149 491.972,577.987 490.052,578.804 488.124,579.601 486.187,580.377 484.242,581.132 482.289,581.867 480.329,582.58 478.36,583.272 476.385,583.943 474.402,584.593 472.413,585.221 470.416,585.828 468.414,586.414 466.405,586.978 464.391,587.52 462.37,588.041 460.344,588.54 458.313,589.017 456.277,589.472 454.236,589.905 452.191,590.317 450.141,590.706 448.087,591.074 446.03,591.419 443.968,591.742 441.904,592.043 439.836,592.322 437.766,592.579 435.692,592.813 433.617,593.025 431.539,593.215 429.459,593.382 427.378,593.527 425.295,593.65 423.211,593.75 421.126,593.828 419.041,593.884 416.954,593.917 414.868,593.928 414.868,586.812 "
   id="polyline7062" />
</g>
</svg>
