<?xml version="1.0" encoding="UTF-8" standalone="no"?>
<svg
   viewBox="0 0 224.58501 420.60599"
   version="1.1"
   stroke-linecap="round"
   stroke-linejoin="round"
   fill-rule="evenodd"
   xml:space="preserve"
   id="svg4121"
   width="224.58501"
   height="420.60599"
   xmlns="http://www.w3.org/2000/svg"
   xmlns:svg="http://www.w3.org/2000/svg">
<defs
   id="defs4113">
<clipPath
   id="clipId0">
<path
   d="M 0,768 H 1024 V 0 H 0 Z"
   id="path4110" />
</clipPath>
</defs>

<g
   stroke-width="0.75"
   clip-path="url(#clipId0)"
   fill="none"
   stroke="#0000ff"
   id="g4119"
   transform="translate(-399.707,-173.697)">
<polyline
   points="400.082,593.928 573.863,593.928 573.863,593.928 574.917,593.917 575.971,593.883 577.023,593.828 578.074,593.75 579.123,593.651 580.17,593.529 581.214,593.385 582.255,593.219 583.292,593.032 584.325,592.822 585.353,592.591 586.377,592.339 587.394,592.064 588.406,591.769 589.411,591.452 590.409,591.114 591.4,590.755 592.383,590.376 593.358,589.975 594.325,589.555 595.282,589.114 596.23,588.653 597.168,588.172 598.095,587.672 599.012,587.152 599.918,586.613 600.812,586.055 601.694,585.478 602.564,584.883 603.421,584.269 604.265,583.638 605.095,582.989 605.912,582.323 606.714,581.64 607.502,580.94 608.275,580.223 609.033,579.491 609.775,578.742 610.501,577.978 611.211,577.2 611.904,576.406 612.581,575.598 613.24,574.775 613.882,573.94 614.506,573.09 615.112,572.228 615.7,571.353 616.27,570.467 616.82,569.568 617.351,568.658 617.864,567.737 618.356,566.805 618.829,565.863 619.282,564.911 619.715,563.951 620.128,562.981 620.52,562.002 620.891,561.016 621.242,560.022 621.571,559.021 621.88,558.013 622.167,556.999 622.432,555.979 622.676,554.954 622.899,553.924 623.1,552.889 623.279,551.851 623.436,550.808 623.571,549.763 623.684,548.715 623.775,547.665 623.843,546.614 623.89,545.561 623.914,544.507 623.917,543.453 623.897,542.399 623.855,541.346 623.79,540.294 623.79,540.294 623.584,537.576 623.356,534.86 623.106,532.146 622.834,529.434 622.54,526.724 622.223,524.017 621.885,521.312 621.525,518.61 621.142,515.911 620.738,513.216 620.312,510.524 619.864,507.835 619.394,505.15 618.902,502.469 618.388,499.792 617.853,497.119 617.296,494.451 616.717,491.788 616.116,489.129 615.494,486.475 614.851,483.826 614.185,481.183 613.499,478.545 612.79,475.913 612.061,473.287 611.31,470.667 610.538,468.053 609.744,465.445 608.929,462.844 608.094,460.249 607.237,457.662 606.359,455.081 605.46,452.508 604.54,449.942 603.599,447.384 602.638,444.833 601.656,442.291 600.653,439.756 599.629,437.23 598.585,434.712 597.521,432.203 596.436,429.702 595.331,427.21 594.205,424.728 593.06,422.255 591.894,419.791 590.708,417.336 589.503,414.892 588.277,412.457 587.032,410.032 585.767,407.618 584.482,405.214 583.178,402.82 581.855,400.437 580.512,398.065 579.15,395.704 577.768,393.354 576.368,391.016 574.949,388.689 573.51,386.374 572.053,384.07 570.577,381.778 569.083,379.499 567.57,377.231 566.039,374.976 564.489,372.734 562.922,370.504 561.336,368.287 559.732,366.083 558.11,363.893 556.47,361.715 554.813,359.551 553.138,357.4 551.446,355.264 549.737,353.141 548.01,351.032 546.266,348.937 544.505,346.856 542.727,344.79 540.933,342.738 539.122,340.701 537.294,338.679 535.45,336.672 533.589,334.68 531.713,332.703 529.82,330.741 527.912,328.795 525.988,326.864 524.048,324.949 522.092,323.05 520.122,321.167 518.136,319.301 516.134,317.45 514.118,315.616 512.087,313.798 510.041,311.996 507.981,310.212 505.906,308.444 503.817,306.693 501.714,304.96 499.596,303.243 497.465,301.544 495.32,299.862 493.162,298.198 490.989,296.551 488.804,294.922 486.605,293.311 484.394,291.718 484.394,291.718 482.956,290.678 481.532,289.62 480.121,288.544 478.724,287.451 477.341,286.34 475.971,285.212 474.616,284.067 473.275,282.905 471.949,281.727 470.638,280.532 469.341,279.32 468.06,278.093 466.795,276.85 465.545,275.591 464.311,274.316 463.093,273.026 461.891,271.721 460.705,270.401 459.537,269.066 458.385,267.717 457.25,266.353 456.132,264.976 455.031,263.584 453.948,262.179 452.883,260.76 451.835,259.329 450.805,257.884 449.794,256.426 448.801,254.956 447.826,253.474 446.87,251.979 445.933,250.473 445.014,248.955 444.115,247.426 443.235,245.885 442.374,244.334 441.533,242.772 440.711,241.199 439.909,239.617 439.127,238.024 438.365,236.422 437.623,234.811 436.901,233.19 436.199,231.561 435.518,229.922 434.858,228.276 434.218,226.621 433.599,224.958 433,223.288 432.423,221.611 431.867,219.926 431.332,218.235 430.818,216.536 430.325,214.832 429.853,213.122 429.403,211.406 428.975,209.684 428.568,207.957 428.183,206.225 427.819,204.489 427.477,202.748 427.157,201.003 426.859,199.254 426.583,197.501 426.329,195.746 426.096,193.987 425.886,192.225 425.698,190.461 425.532,188.695 425.388,186.926 425.266,185.156 425.166,183.385 425.088,181.613 425.033,179.839 424.999,178.065 424.988,176.291 424.988,174.072 417.872,174.072 417.872,176.291 417.872,176.291 417.883,178.107 417.916,179.922 417.972,181.736 418.049,183.55 418.149,185.363 418.27,187.174 418.414,188.984 418.58,190.792 418.767,192.597 418.977,194.4 419.209,196.201 419.462,197.999 419.738,199.793 420.035,201.584 420.354,203.371 420.695,205.154 421.058,206.933 421.442,208.707 421.848,210.476 422.275,212.241 422.724,214 423.194,215.753 423.686,217.501 424.199,219.242 424.733,220.977 425.288,222.706 425.864,224.427 426.461,226.142 427.079,227.849 427.718,229.548 428.377,231.239 429.057,232.923 429.758,234.597 430.478,236.264 431.219,237.921 431.98,239.569 432.762,241.208 433.563,242.837 434.384,244.456 435.224,246.065 436.084,247.664 436.964,249.252 437.863,250.829 438.781,252.395 439.718,253.95 440.673,255.493 441.648,257.025 442.641,258.545 443.653,260.052 444.683,261.547 445.731,263.029 446.797,264.499 447.881,265.955 448.983,267.398 450.102,268.827 451.238,270.243 452.392,271.645 453.562,273.032 454.75,274.406 455.954,275.764 457.174,277.108 458.411,278.437 459.664,279.751 460.933,281.049 462.217,282.332 463.517,283.599 464.833,284.85 466.163,286.085 467.509,287.304 468.869,288.506 470.244,289.691 471.633,290.86 473.036,292.012 474.454,293.146 475.885,294.263 477.329,295.363 478.787,296.445 480.258,297.509 480.258,297.509 482.443,299.083 484.615,300.675 486.773,302.284 488.919,303.912 491.051,305.556 493.169,307.219 495.274,308.899 497.364,310.596 499.441,312.31 501.504,314.041 503.552,315.789 505.586,317.553 507.605,319.335 509.61,321.133 511.6,322.947 513.574,324.778 515.534,326.624 517.479,328.487 519.408,330.366 521.321,332.26 523.219,334.171 525.101,336.096 526.968,338.037 528.818,339.994 530.652,341.965 532.47,343.952 534.272,345.953 536.057,347.969 537.825,350 539.577,352.045 541.312,354.104 543.029,356.178 544.73,358.266 546.414,360.367 548.08,362.483 549.729,364.612 551.36,366.754 552.973,368.91 554.569,371.079 556.147,373.261 557.707,375.456 559.249,377.663 560.773,379.884 562.278,382.116 563.765,384.361 565.233,386.618 566.683,388.887 568.115,391.168 569.527,393.461 570.921,395.765 572.295,398.081 573.651,400.407 574.987,402.745 576.304,405.094 577.602,407.453 578.88,409.823 580.139,412.203 581.378,414.594 582.598,416.995 583.797,419.406 584.977,421.826 586.137,424.256 587.277,426.696 588.397,429.145 589.497,431.603 590.576,434.069 591.636,436.545 592.675,439.029 593.693,441.522 594.691,444.023 595.668,446.532 596.625,449.049 597.561,451.574 598.476,454.107 599.37,456.647 600.244,459.194 601.096,461.748 601.928,464.309 602.738,466.877 603.527,469.452 604.295,472.033 605.042,474.62 605.768,477.213 606.472,479.812 607.155,482.417 607.816,485.027 608.456,487.643 609.075,490.263 609.672,492.889 610.247,495.52 610.801,498.155 611.333,500.795 611.843,503.439 612.332,506.087 612.799,508.739 613.244,511.394 613.667,514.054 614.068,516.716 614.448,519.382 614.805,522.051 615.141,524.723 615.454,527.397 615.746,530.074 616.016,532.753 616.263,535.435 616.489,538.118 616.692,540.803 616.692,540.803 616.751,541.781 616.788,542.76 616.802,543.739 616.794,544.718 616.763,545.697 616.711,546.675 616.636,547.652 616.538,548.626 616.419,549.598 616.277,550.568 616.113,551.533 615.928,552.495 615.72,553.452 615.491,554.404 615.24,555.351 614.967,556.292 614.673,557.226 614.358,558.153 614.022,559.073 613.665,559.985 613.287,560.889 612.888,561.784 612.47,562.669 612.031,563.545 611.572,564.41 611.094,565.265 610.596,566.108 610.08,566.94 609.544,567.761 608.99,568.568 608.418,569.363 607.827,570.144 607.219,570.912 606.594,571.666 605.951,572.405 605.292,573.13 604.617,573.839 603.925,574.533 603.218,575.21 602.496,575.872 601.758,576.516 601.007,577.144 600.241,577.755 599.461,578.347 598.668,578.922 597.862,579.479 597.044,580.017 596.213,580.536 595.371,581.037 594.518,581.517 593.654,581.979 592.78,582.42 591.896,582.842 591.002,583.243 590.1,583.624 589.189,583.984 588.27,584.323 587.344,584.641 586.41,584.938 585.471,585.213 584.525,585.467 583.573,585.699 582.617,585.91 581.656,586.099 580.69,586.265 579.722,586.41 578.75,586.533 577.776,586.633 576.799,586.711 575.822,586.767 574.843,586.8 573.863,586.812 400.082,586.812 400.082,593.928 "
   id="polyline4117" />
</g>
</svg>
