<?xml version="1.0" encoding="UTF-8" standalone="no"?>
<svg
   viewBox="0 0 223.58299 420.60599"
   version="1.1"
   stroke-linecap="round"
   stroke-linejoin="round"
   fill-rule="evenodd"
   xml:space="preserve"
   id="svg1072"
   width="223.58299"
   height="420.60599"
   xmlns="http://www.w3.org/2000/svg"
   xmlns:svg="http://www.w3.org/2000/svg">
<defs
   id="defs1064">
<clipPath
   id="clipId0">
<path
   d="M 0,768 H 1024 V 0 H 0 Z"
   id="path1061" />
</clipPath>
</defs>

<g
   stroke-width="0.75"
   clip-path="url(#clipId0)"
   fill="none"
   stroke="#ff0000"
   id="g1070"
   transform="translate(-400.208,-173.697)">
<polyline
   points="400.583,593.928 578.941,593.928 578.941,593.928 579.934,593.917 580.927,593.883 581.92,593.828 582.91,593.75 583.899,593.651 584.885,593.529 585.868,593.385 586.848,593.219 587.824,593.032 588.796,592.822 589.762,592.591 590.723,592.339 591.678,592.065 592.627,591.77 593.569,591.453 594.504,591.116 595.431,590.758 596.35,590.379 597.26,589.98 598.16,589.561 599.052,589.121 599.933,588.662 600.804,588.183 601.664,587.685 602.512,587.168 603.349,586.632 604.173,586.077 604.985,585.504 605.784,584.914 606.57,584.305 607.342,583.679 608.099,583.036 608.842,582.376 609.57,581.7 610.283,581.008 610.98,580.299 611.662,579.576 612.326,578.837 612.975,578.084 613.606,577.317 614.22,576.535 614.816,575.74 615.394,574.932 615.955,574.111 616.496,573.278 617.019,572.433 617.523,571.577 618.008,570.709 618.473,569.831 618.918,568.943 619.344,568.045 619.749,567.138 620.134,566.222 620.499,565.297 620.842,564.365 621.165,563.425 621.467,562.478 621.747,561.525 622.006,560.565 622.244,559.6 622.459,558.63 622.654,557.656 622.826,556.677 622.977,555.695 623.105,554.71 623.211,553.722 623.296,552.732 623.358,551.74 623.398,550.747 623.416,549.753 623.412,548.76 623.385,547.766 623.336,546.774 623.265,545.783 623.172,544.793 623.057,543.806 622.92,542.822 622.761,541.841 622.58,540.864 622.377,539.891 622.153,538.923 621.907,537.96 621.639,537.003 621.351,536.052 621.041,535.108 620.71,534.171 620.358,533.242 619.985,532.321 619.592,531.408 619.179,530.504 618.746,529.61 618.293,528.726 617.82,527.852 428.816,187.652 428.816,187.652 428.464,186.996 428.13,186.33 427.815,185.655 427.519,184.972 427.243,184.281 426.986,183.582 426.749,182.876 426.532,182.163 426.335,181.445 426.158,180.722 426.002,179.994 425.867,179.262 425.752,178.526 425.657,177.787 425.584,177.046 425.532,176.303 425.5,175.559 425.49,174.815 425.49,174.072 418.374,174.072 418.374,174.815 418.374,174.815 418.384,175.665 418.417,176.515 418.471,177.364 418.546,178.211 418.643,179.057 418.761,179.899 418.901,180.738 419.061,181.573 419.243,182.404 419.446,183.23 419.67,184.051 419.915,184.866 420.18,185.674 420.465,186.475 420.771,187.269 421.097,188.055 421.442,188.832 421.807,189.6 422.192,190.359 422.596,191.108 611.599,531.308 611.599,531.308 612.033,532.111 612.447,532.925 612.841,533.749 613.214,534.583 613.568,535.425 613.9,536.276 614.212,537.134 614.502,538 614.772,538.873 615.019,539.752 615.246,540.636 615.45,541.526 615.633,542.421 615.794,543.32 615.933,544.223 616.05,545.129 616.144,546.037 616.217,546.947 616.267,547.859 616.295,548.772 616.3,549.685 616.283,550.599 616.244,551.511 616.182,552.422 616.099,553.332 615.993,554.239 615.865,555.143 615.715,556.044 615.542,556.941 615.348,557.833 615.133,558.721 614.895,559.602 614.636,560.478 614.356,561.348 614.055,562.21 613.733,563.064 613.389,563.911 613.026,564.748 612.642,565.577 612.237,566.396 611.813,567.205 611.369,568.003 610.906,568.79 610.424,569.566 609.923,570.329 609.403,571.08 608.866,571.818 608.31,572.543 607.737,573.254 607.146,573.951 606.539,574.633 605.915,575.3 605.275,575.952 604.62,576.587 603.949,577.207 603.263,577.81 602.562,578.396 601.848,578.965 601.12,579.516 600.378,580.049 599.624,580.564 598.857,581.06 598.079,581.538 597.289,581.996 596.488,582.435 595.676,582.854 594.855,583.253 594.024,583.632 593.184,583.99 592.335,584.328 591.479,584.645 590.615,584.941 589.744,585.216 588.866,585.469 587.983,585.701 587.094,585.911 586.201,586.099 585.303,586.266 584.401,586.41 583.496,586.533 582.588,586.633 581.678,586.711 580.767,586.767 579.854,586.8 578.941,586.812 400.583,586.812 400.583,593.928 "
   id="polyline1068" />
</g>
</svg>
