<?xml version="1.0" standalone="no"?>
<svg viewBox="0 0 1024 768" version="1.1" xmlns="http://www.w3.org/2000/svg" xmlns:xlink="http://www.w3.org/1999/xlink" stroke-linecap="round" stroke-linejoin="round" fill-rule="evenodd" xml:space="preserve" >
<defs >
<clipPath id="clipId0" >
<path d="M0,768 1024,768 1024,0 0,0 z" />
</clipPath>
</defs>
<g stroke-width="0.3" clip-path="url(#clipId0)" fill="none" stroke="rgb(0,0,0)" />
<g stroke-width="0.75" clip-path="url(#clipId0)" fill="none" stroke="rgb(255,0,0)" >
<polyline points="630.561,124.622 386.332,564.228 386.332,564.228 385.898,565.026 385.48,565.833 385.077,566.647 384.691,567.47 384.32,568.299 383.965,569.135 383.626,569.978 383.304,570.828 382.998,571.683 382.708,572.544 382.435,573.411 382.179,574.282 381.94,575.159 381.717,576.04 381.512,576.925 381.323,577.814 381.152,578.706 380.998,579.601 380.861,580.499 380.742,581.4 380.639,582.303 380.555,583.207 380.487,584.113 380.437,585.02 380.405,585.928 380.39,586.837 380.392,587.745 380.412,588.654 380.45,589.561 380.505,590.468 380.577,591.374 380.667,592.278 380.774,593.18 380.898,594.08 381.04,594.977 381.199,595.872 381.375,596.763 381.569,597.651 381.779,598.535 382.006,599.414 382.251,600.29 382.511,601.16 382.789,602.025 383.083,602.884 383.394,603.738 383.721,604.586 384.065,605.427 384.424,606.261 384.799,607.089 385.191,607.909 385.598,608.721 386.02,609.525 386.458,610.321 386.911,611.108 387.38,611.887 387.863,612.656 388.361,613.416 388.873,614.167 389.4,614.907 389.941,615.637 390.495,616.356 391.064,617.065 391.646,617.763 392.241,618.449 392.85,619.123 393.471,619.786 394.105,620.437 394.752,621.076 395.41,621.701 396.081,622.315 396.763,622.915 397.456,623.501 398.161,624.075 398.877,624.635 399.603,625.18 400.34,625.712 401.086,626.23 401.843,626.733 402.609,627.221 403.384,627.695 404.169,628.153 404.962,628.597 405.763,629.025 406.572,629.437 407.39,629.834 408.214,630.215 409.046,630.581 409.885,630.93 410.73,631.263 411.582,631.579 412.439,631.879 413.302,632.163 414.171,632.43 415.044,632.68 415.922,632.914 416.805,633.13 417.691,633.329 418.581,633.512 419.475,633.677 420.371,633.825 421.27,633.955 422.171,634.069 423.075,634.165 423.98,634.243 424.886,634.304 425.794,634.348 426.702,634.374 427.611,634.383 652.606,634.383 652.606,643.378 427.611,643.378 427.611,643.378 426.612,643.369 425.614,643.342 424.617,643.298 423.62,643.236 422.625,643.156 421.632,643.059 420.64,642.944 419.65,642.811 418.663,642.661 417.679,642.493 416.698,642.308 415.72,642.106 414.746,641.886 413.777,641.649 412.811,641.395 411.85,641.123 410.895,640.835 409.944,640.529 408.999,640.207 408.06,639.868 407.127,639.513 406.201,639.141 405.281,638.752 404.368,638.348 403.463,637.927 402.565,637.49 401.675,637.037 400.794,636.569 399.92,636.085 399.056,635.585 398.2,635.071 397.354,634.541 396.518,633.996 395.691,633.436 394.874,632.862 394.068,632.274 393.272,631.671 392.487,631.054 391.713,630.423 390.95,629.779 390.199,629.121 389.46,628.45 388.733,627.766 388.018,627.069 387.315,626.36 386.625,625.638 385.948,624.904 385.285,624.158 384.634,623.401 383.998,622.632 383.375,621.852 382.765,621.061 382.17,620.259 381.59,619.447 381.024,618.625 380.472,617.792 379.936,616.95 379.414,616.099 378.908,615.238 378.417,614.369 377.942,613.491 377.482,612.605 377.038,611.711 376.61,610.809 376.198,609.899 375.802,608.983 375.423,608.059 375.06,607.129 374.714,606.193 374.384,605.25 374.071,604.302 373.775,603.349 373.496,602.39 373.234,601.427 372.99,600.459 372.762,599.487 372.552,598.511 372.359,597.531 372.184,596.548 372.026,595.563 371.885,594.574 371.762,593.583 371.657,592.59 371.569,591.596 371.5,590.6 371.447,589.603 371.413,588.605 371.396,587.607 371.397,586.609 371.416,585.61 371.452,584.613 371.506,583.616 371.578,582.62 371.667,581.626 371.775,580.633 371.899,579.642 372.042,578.654 372.201,577.669 372.379,576.686 372.574,575.707 372.786,574.731 373.015,573.76 373.262,572.792 373.525,571.829 373.806,570.871 374.104,569.918 374.419,568.971 374.75,568.029 375.098,567.093 375.463,566.164 375.844,565.241 376.241,564.325 376.655,563.417 377.085,562.516 377.53,561.622 377.992,560.737 378.469,559.86 620.272,124.622 630.561,124.622 " />
</g>
</svg>
