<?xml version="1.0" standalone="no"?>
<svg viewBox="0 0 1024 768" version="1.1" xmlns="http://www.w3.org/2000/svg" xmlns:xlink="http://www.w3.org/1999/xlink" stroke-linecap="round" stroke-linejoin="round" fill-rule="evenodd" xml:space="preserve" >
<defs >
<clipPath id="clipId0" >
<path d="M0,768 1024,768 1024,0 0,0 z" />
</clipPath>
</defs>
<g stroke-width="0.3" clip-path="url(#clipId0)" fill="none" stroke="rgb(0,0,0)" />
<g stroke-width="0.75" clip-path="url(#clipId0)" fill="none" stroke="rgb(255,0,0)" >
<polyline points="736.995,643.378 737.994,643.369 738.992,643.342 739.989,643.298 740.985,643.236 741.981,643.156 742.974,643.059 743.966,642.944 744.955,642.811 745.942,642.661 746.927,642.493 747.908,642.308 748.885,642.106 749.859,641.886 750.829,641.649 751.795,641.395 752.755,641.123 753.711,640.835 754.662,640.529 755.607,640.207 756.546,639.868 757.479,639.513 758.405,639.141 759.325,638.752 760.238,638.348 761.143,637.927 762.041,637.49 762.931,637.037 763.812,636.569 764.685,636.085 765.55,635.585 766.405,635.071 767.252,634.541 768.088,633.996 768.915,633.436 769.732,632.862 770.538,632.274 771.334,631.671 772.119,631.054 772.893,630.423 773.656,629.779 774.407,629.121 775.146,628.45 775.873,627.766 776.588,627.069 777.291,626.36 777.98,625.638 778.657,624.904 779.321,624.158 779.971,623.401 780.608,622.632 781.231,621.852 781.84,621.061 782.435,620.259 783.016,619.447 783.582,618.625 784.133,617.792 784.67,616.95 785.191,616.099 785.698,615.238 786.189,614.369 786.664,613.491 787.124,612.605 787.568,611.711 787.996,610.809 788.408,609.899 788.803,608.983 789.183,608.059 789.546,607.129 789.892,606.193 790.222,605.25 790.534,604.302 790.83,603.349 791.109,602.39 791.371,601.427 791.616,600.459 791.844,599.487 792.054,598.511 792.247,597.531 792.422,596.548 792.58,595.563 792.721,594.574 792.843,593.583 792.949,592.59 793.036,591.596 793.106,590.6 793.158,589.603 793.193,588.605 793.21,587.607 793.209,586.609 793.19,585.61 793.154,584.613 793.1,583.616 793.028,582.62 792.938,581.626 792.831,580.633 792.706,579.642 792.564,578.654 792.404,577.669 792.227,576.686 792.032,575.707 791.82,574.731 791.591,573.76 791.344,572.792 791.08,571.829 790.8,570.871 790.502,569.918 790.187,568.971 789.856,568.029 789.508,567.093 789.143,566.164 788.762,565.241 788.364,564.325 787.951,563.417 787.521,562.516 787.075,561.622 786.614,560.737 786.137,559.86 544.334,124.622 479.666,124.622 237.863,559.86 237.863,559.86 237.386,560.737 236.925,561.622 236.479,562.516 236.049,563.417 235.636,564.325 235.238,565.241 234.857,566.164 234.492,567.093 234.144,568.029 233.813,568.971 233.498,569.918 233.2,570.871 232.92,571.829 232.656,572.792 232.409,573.76 232.18,574.731 231.968,575.707 231.773,576.686 231.596,577.669 231.436,578.654 231.294,579.642 231.169,580.633 231.062,581.626 230.972,582.62 230.9,583.616 230.846,584.613 230.81,585.61 230.791,586.609 230.79,587.607 230.807,588.605 230.842,589.603 230.894,590.6 230.964,591.596 231.051,592.59 231.157,593.583 231.279,594.574 231.42,595.563 231.578,596.548 231.753,597.531 231.946,598.511 232.156,599.487 232.384,600.459 232.629,601.427 232.891,602.39 233.17,603.349 233.466,604.302 233.778,605.25 234.108,606.193 234.454,607.129 234.817,608.059 235.197,608.983 235.592,609.899 236.004,610.809 236.432,611.711 236.876,612.605 237.336,613.491 237.811,614.369 238.302,615.238 238.809,616.099 239.33,616.95 239.867,617.792 240.418,618.625 240.984,619.447 241.565,620.259 242.16,621.061 242.769,621.852 243.392,622.632 244.029,623.401 244.679,624.158 245.343,624.904 246.02,625.638 246.709,626.36 247.412,627.069 248.127,627.766 248.854,628.45 249.593,629.121 250.344,629.779 251.107,630.423 251.881,631.054 252.666,631.671 253.462,632.274 254.268,632.862 255.085,633.436 255.912,633.996 256.748,634.541 257.595,635.071 258.45,635.585 259.315,636.085 260.188,636.569 261.069,637.037 261.959,637.49 262.857,637.927 263.762,638.348 264.675,638.752 265.595,639.141 266.521,639.513 267.454,639.868 268.393,640.207 269.338,640.529 270.289,640.835 271.245,641.123 272.205,641.395 273.171,641.649 274.141,641.886 275.115,642.106 276.092,642.308 277.073,642.493 278.058,642.661 279.045,642.811 280.034,642.944 281.026,643.059 282.019,643.156 283.015,643.236 284.011,643.298 285.008,643.342 286.006,643.369 287.005,643.378 736.995,643.378 " />
</g>
</svg>
